solid OpenSCAD_Model
  facet normal 0 -1 0
    outer loop
      vertex 1 0 0.6
      vertex 6.49495 0 3
      vertex 0 0 3
    endloop
  endfacet
  facet normal 0 -1 0
    outer loop
      vertex 1 0 0.6
      vertex 0 0 3
      vertex 0 0 0.6
    endloop
  endfacet
  facet normal 0 -1 -0
    outer loop
      vertex 6.49495 0 3
      vertex 1 0 0.6
      vertex 6.49495 0 2.6
    endloop
  endfacet
  facet normal 0 1 0
    outer loop
      vertex 1 10 0.6
      vertex 6.49495 10 3
      vertex 6.49495 10 2.6
    endloop
  endfacet
  facet normal 0 1 0
    outer loop
      vertex 6.49495 10 3
      vertex 1 10 0.6
      vertex 0 10 3
    endloop
  endfacet
  facet normal 0 1 0
    outer loop
      vertex 0 10 3
      vertex 1 10 0.6
      vertex 0 10 0.6
    endloop
  endfacet
  facet normal 0 0 -1
    outer loop
      vertex 0 0 0.6
      vertex 1 10 0.6
      vertex 1 0 0.6
    endloop
  endfacet
  facet normal -0 0 -1
    outer loop
      vertex 1 10 0.6
      vertex 0 0 0.6
      vertex 0 10 0.6
    endloop
  endfacet
  facet normal -1 0 0
    outer loop
      vertex 0 0 0.6
      vertex 0 10 3
      vertex 0 10 0.6
    endloop
  endfacet
  facet normal -1 -0 0
    outer loop
      vertex 0 10 3
      vertex 0 0 0.6
      vertex 0 0 3
    endloop
  endfacet
  facet normal 0.34202 0 -0.939693
    outer loop
      vertex 1 0 0.6
      vertex 6.49495 10 2.6
      vertex 6.49495 0 2.6
    endloop
  endfacet
  facet normal 0.34202 0 -0.939693
    outer loop
      vertex 6.49495 10 2.6
      vertex 1 0 0.6
      vertex 1 10 0.6
    endloop
  endfacet
  facet normal -0 0 1
    outer loop
      vertex 0 10 3
      vertex 6.49495 0 3
      vertex 6.49495 10 3
    endloop
  endfacet
  facet normal 0 0 1
    outer loop
      vertex 6.49495 0 3
      vertex 0 10 3
      vertex 0 0 3
    endloop
  endfacet
  facet normal 1 -0 0
    outer loop
      vertex 6.49495 0 3
      vertex 6.49495 10 2.6
      vertex 6.49495 10 3
    endloop
  endfacet
  facet normal 1 0 0
    outer loop
      vertex 6.49495 10 2.6
      vertex 6.49495 0 3
      vertex 6.49495 0 2.6
    endloop
  endfacet
  facet normal 0 -1 0
    outer loop
      vertex 0 0 5.4
      vertex 5.28901 0 5
      vertex 5.28901 0 5.4
    endloop
  endfacet
  facet normal 0 -1 0
    outer loop
      vertex 1 0 3
      vertex 0 0 5.4
      vertex 0 0 3
    endloop
  endfacet
  facet normal 0 -1 0
    outer loop
      vertex 0 0 5.4
      vertex 1 0 3
      vertex 5.28901 0 5
    endloop
  endfacet
  facet normal 0 1 -0
    outer loop
      vertex 5.28901 10 5
      vertex 0 10 5.4
      vertex 5.28901 10 5.4
    endloop
  endfacet
  facet normal 0 1 -0
    outer loop
      vertex 1 10 3
      vertex 0 10 5.4
      vertex 5.28901 10 5
    endloop
  endfacet
  facet normal 0 1 0
    outer loop
      vertex 0 10 5.4
      vertex 1 10 3
      vertex 0 10 3
    endloop
  endfacet
  facet normal 0 0 -1
    outer loop
      vertex 0 0 3
      vertex 1 10 3
      vertex 1 0 3
    endloop
  endfacet
  facet normal -0 0 -1
    outer loop
      vertex 1 10 3
      vertex 0 0 3
      vertex 0 10 3
    endloop
  endfacet
  facet normal -1 0 0
    outer loop
      vertex 0 0 3
      vertex 0 10 5.4
      vertex 0 10 3
    endloop
  endfacet
  facet normal -1 -0 0
    outer loop
      vertex 0 10 5.4
      vertex 0 0 3
      vertex 0 0 5.4
    endloop
  endfacet
  facet normal 0.422619 0 -0.906308
    outer loop
      vertex 1 0 3
      vertex 5.28901 10 5
      vertex 5.28901 0 5
    endloop
  endfacet
  facet normal 0.422619 0 -0.906308
    outer loop
      vertex 5.28901 10 5
      vertex 1 0 3
      vertex 1 10 3
    endloop
  endfacet
  facet normal -0 0 1
    outer loop
      vertex 0 10 5.4
      vertex 5.28901 0 5.4
      vertex 5.28901 10 5.4
    endloop
  endfacet
  facet normal 0 0 1
    outer loop
      vertex 5.28901 0 5.4
      vertex 0 10 5.4
      vertex 0 0 5.4
    endloop
  endfacet
  facet normal 1 -0 0
    outer loop
      vertex 5.28901 0 5.4
      vertex 5.28901 10 5
      vertex 5.28901 10 5.4
    endloop
  endfacet
  facet normal 1 0 0
    outer loop
      vertex 5.28901 10 5
      vertex 5.28901 0 5.4
      vertex 5.28901 0 5
    endloop
  endfacet
  facet normal 0 -1 0
    outer loop
      vertex 0 0 7.8
      vertex 4.4641 0 7.4
      vertex 4.4641 0 7.8
    endloop
  endfacet
  facet normal 0 -1 0
    outer loop
      vertex 1 0 5.4
      vertex 0 0 7.8
      vertex 0 0 5.4
    endloop
  endfacet
  facet normal 0 -1 0
    outer loop
      vertex 0 0 7.8
      vertex 1 0 5.4
      vertex 4.4641 0 7.4
    endloop
  endfacet
  facet normal 0 1 -0
    outer loop
      vertex 4.4641 10 7.4
      vertex 0 10 7.8
      vertex 4.4641 10 7.8
    endloop
  endfacet
  facet normal 0 1 -0
    outer loop
      vertex 1 10 5.4
      vertex 0 10 7.8
      vertex 4.4641 10 7.4
    endloop
  endfacet
  facet normal 0 1 0
    outer loop
      vertex 0 10 7.8
      vertex 1 10 5.4
      vertex 0 10 5.4
    endloop
  endfacet
  facet normal 0 0 -1
    outer loop
      vertex 0 0 5.4
      vertex 1 10 5.4
      vertex 1 0 5.4
    endloop
  endfacet
  facet normal -0 0 -1
    outer loop
      vertex 1 10 5.4
      vertex 0 0 5.4
      vertex 0 10 5.4
    endloop
  endfacet
  facet normal -1 0 0
    outer loop
      vertex 0 0 5.4
      vertex 0 10 7.8
      vertex 0 10 5.4
    endloop
  endfacet
  facet normal -1 -0 0
    outer loop
      vertex 0 10 7.8
      vertex 0 0 5.4
      vertex 0 0 7.8
    endloop
  endfacet
  facet normal 0.5 0 -0.866025
    outer loop
      vertex 1 0 5.4
      vertex 4.4641 10 7.4
      vertex 4.4641 0 7.4
    endloop
  endfacet
  facet normal 0.5 0 -0.866025
    outer loop
      vertex 4.4641 10 7.4
      vertex 1 0 5.4
      vertex 1 10 5.4
    endloop
  endfacet
  facet normal -0 0 1
    outer loop
      vertex 0 10 7.8
      vertex 4.4641 0 7.8
      vertex 4.4641 10 7.8
    endloop
  endfacet
  facet normal 0 0 1
    outer loop
      vertex 4.4641 0 7.8
      vertex 0 10 7.8
      vertex 0 0 7.8
    endloop
  endfacet
  facet normal 1 -0 0
    outer loop
      vertex 4.4641 0 7.8
      vertex 4.4641 10 7.4
      vertex 4.4641 10 7.8
    endloop
  endfacet
  facet normal 1 0 0
    outer loop
      vertex 4.4641 10 7.4
      vertex 4.4641 0 7.8
      vertex 4.4641 0 7.4
    endloop
  endfacet
  facet normal 0 -1 0
    outer loop
      vertex 0 0 10.2
      vertex 3.8563 0 9.8
      vertex 3.8563 0 10.2
    endloop
  endfacet
  facet normal 0 -1 0
    outer loop
      vertex 1 0 7.8
      vertex 0 0 10.2
      vertex 0 0 7.8
    endloop
  endfacet
  facet normal 0 -1 0
    outer loop
      vertex 0 0 10.2
      vertex 1 0 7.8
      vertex 3.8563 0 9.8
    endloop
  endfacet
  facet normal 0 1 -0
    outer loop
      vertex 3.8563 10 9.8
      vertex 0 10 10.2
      vertex 3.8563 10 10.2
    endloop
  endfacet
  facet normal 0 1 -0
    outer loop
      vertex 1 10 7.8
      vertex 0 10 10.2
      vertex 3.8563 10 9.8
    endloop
  endfacet
  facet normal 0 1 0
    outer loop
      vertex 0 10 10.2
      vertex 1 10 7.8
      vertex 0 10 7.8
    endloop
  endfacet
  facet normal 0 0 -1
    outer loop
      vertex 0 0 7.8
      vertex 1 10 7.8
      vertex 1 0 7.8
    endloop
  endfacet
  facet normal -0 0 -1
    outer loop
      vertex 1 10 7.8
      vertex 0 0 7.8
      vertex 0 10 7.8
    endloop
  endfacet
  facet normal 0.573576 0 -0.819152
    outer loop
      vertex 1 0 7.8
      vertex 3.8563 10 9.8
      vertex 3.8563 0 9.8
    endloop
  endfacet
  facet normal 0.573576 0 -0.819152
    outer loop
      vertex 3.8563 10 9.8
      vertex 1 0 7.8
      vertex 1 10 7.8
    endloop
  endfacet
  facet normal -1 0 0
    outer loop
      vertex 0 0 7.8
      vertex 0 10 10.2
      vertex 0 10 7.8
    endloop
  endfacet
  facet normal -1 -0 0
    outer loop
      vertex 0 10 10.2
      vertex 0 0 7.8
      vertex 0 0 10.2
    endloop
  endfacet
  facet normal -0 0 1
    outer loop
      vertex 0 10 10.2
      vertex 3.8563 0 10.2
      vertex 3.8563 10 10.2
    endloop
  endfacet
  facet normal 0 0 1
    outer loop
      vertex 3.8563 0 10.2
      vertex 0 10 10.2
      vertex 0 0 10.2
    endloop
  endfacet
  facet normal 1 -0 0
    outer loop
      vertex 3.8563 0 10.2
      vertex 3.8563 10 9.8
      vertex 3.8563 10 10.2
    endloop
  endfacet
  facet normal 1 0 0
    outer loop
      vertex 3.8563 10 9.8
      vertex 3.8563 0 10.2
      vertex 3.8563 0 9.8
    endloop
  endfacet
  facet normal 0 -1 0
    outer loop
      vertex 0 0 12.6
      vertex 3.38351 0 12.2
      vertex 3.38351 0 12.6
    endloop
  endfacet
  facet normal 0 -1 0
    outer loop
      vertex 1 0 10.2
      vertex 0 0 12.6
      vertex 0 0 10.2
    endloop
  endfacet
  facet normal 0 -1 0
    outer loop
      vertex 0 0 12.6
      vertex 1 0 10.2
      vertex 3.38351 0 12.2
    endloop
  endfacet
  facet normal 0 1 -0
    outer loop
      vertex 3.38351 10 12.2
      vertex 0 10 12.6
      vertex 3.38351 10 12.6
    endloop
  endfacet
  facet normal 0 1 -0
    outer loop
      vertex 1 10 10.2
      vertex 0 10 12.6
      vertex 3.38351 10 12.2
    endloop
  endfacet
  facet normal 0 1 0
    outer loop
      vertex 0 10 12.6
      vertex 1 10 10.2
      vertex 0 10 10.2
    endloop
  endfacet
  facet normal 0 0 -1
    outer loop
      vertex 0 0 10.2
      vertex 1 10 10.2
      vertex 1 0 10.2
    endloop
  endfacet
  facet normal -0 0 -1
    outer loop
      vertex 1 10 10.2
      vertex 0 0 10.2
      vertex 0 10 10.2
    endloop
  endfacet
  facet normal -1 0 0
    outer loop
      vertex 0 0 10.2
      vertex 0 10 12.6
      vertex 0 10 10.2
    endloop
  endfacet
  facet normal -1 -0 0
    outer loop
      vertex 0 10 12.6
      vertex 0 0 10.2
      vertex 0 0 12.6
    endloop
  endfacet
  facet normal 0.642787 0 -0.766045
    outer loop
      vertex 1 0 10.2
      vertex 3.38351 10 12.2
      vertex 3.38351 0 12.2
    endloop
  endfacet
  facet normal 0.642787 0 -0.766045
    outer loop
      vertex 3.38351 10 12.2
      vertex 1 0 10.2
      vertex 1 10 10.2
    endloop
  endfacet
  facet normal -0 0 1
    outer loop
      vertex 0 10 12.6
      vertex 3.38351 0 12.6
      vertex 3.38351 10 12.6
    endloop
  endfacet
  facet normal 0 0 1
    outer loop
      vertex 3.38351 0 12.6
      vertex 0 10 12.6
      vertex 0 0 12.6
    endloop
  endfacet
  facet normal 1 -0 0
    outer loop
      vertex 3.38351 0 12.6
      vertex 3.38351 10 12.2
      vertex 3.38351 10 12.6
    endloop
  endfacet
  facet normal 1 0 0
    outer loop
      vertex 3.38351 10 12.2
      vertex 3.38351 0 12.6
      vertex 3.38351 0 12.2
    endloop
  endfacet
  facet normal 0 -1 0
    outer loop
      vertex 0 0 15
      vertex 3 0 14.6
      vertex 3 0 15
    endloop
  endfacet
  facet normal 0 -1 0
    outer loop
      vertex 1 0 12.6
      vertex 0 0 15
      vertex 0 0 12.6
    endloop
  endfacet
  facet normal 0 -1 0
    outer loop
      vertex 0 0 15
      vertex 1 0 12.6
      vertex 3 0 14.6
    endloop
  endfacet
  facet normal 0 1 -0
    outer loop
      vertex 3 10 14.6
      vertex 0 10 15
      vertex 3 10 15
    endloop
  endfacet
  facet normal 0 1 -0
    outer loop
      vertex 1 10 12.6
      vertex 0 10 15
      vertex 3 10 14.6
    endloop
  endfacet
  facet normal 0 1 0
    outer loop
      vertex 0 10 15
      vertex 1 10 12.6
      vertex 0 10 12.6
    endloop
  endfacet
  facet normal 0 0 -1
    outer loop
      vertex 0 0 12.6
      vertex 1 10 12.6
      vertex 1 0 12.6
    endloop
  endfacet
  facet normal -0 0 -1
    outer loop
      vertex 1 10 12.6
      vertex 0 0 12.6
      vertex 0 10 12.6
    endloop
  endfacet
  facet normal -1 0 0
    outer loop
      vertex 0 0 12.6
      vertex 0 10 15
      vertex 0 10 12.6
    endloop
  endfacet
  facet normal -1 -0 0
    outer loop
      vertex 0 10 15
      vertex 0 0 12.6
      vertex 0 0 15
    endloop
  endfacet
  facet normal 0.707107 0 -0.707107
    outer loop
      vertex 3 0 14.6
      vertex 1 10 12.6
      vertex 3 10 14.6
    endloop
  endfacet
  facet normal 0.707107 0 -0.707107
    outer loop
      vertex 1 10 12.6
      vertex 3 0 14.6
      vertex 1 0 12.6
    endloop
  endfacet
  facet normal -0 0 1
    outer loop
      vertex 0 10 15
      vertex 3 0 15
      vertex 3 10 15
    endloop
  endfacet
  facet normal 0 0 1
    outer loop
      vertex 3 0 15
      vertex 0 10 15
      vertex 0 0 15
    endloop
  endfacet
  facet normal 1 -0 0
    outer loop
      vertex 3 0 15
      vertex 3 10 14.6
      vertex 3 10 15
    endloop
  endfacet
  facet normal 1 0 0
    outer loop
      vertex 3 10 14.6
      vertex 3 0 15
      vertex 3 0 14.6
    endloop
  endfacet
  facet normal -1 0 0
    outer loop
      vertex -1.26 -1.26 0
      vertex -1.26 11.26 0.599999
      vertex -1.26 11.26 0
    endloop
  endfacet
  facet normal -1 -0 0
    outer loop
      vertex -1.26 11.26 0.599999
      vertex -1.26 -1.26 0
      vertex -1.26 -1.26 0.599999
    endloop
  endfacet
  facet normal -0 0 1
    outer loop
      vertex -1.26 11.26 0.599999
      vertex 7.75495 -1.26 0.599999
      vertex 7.75495 11.26 0.599999
    endloop
  endfacet
  facet normal 0 0 1
    outer loop
      vertex 7.75495 -1.26 0.599999
      vertex -1.26 11.26 0.599999
      vertex -1.26 -1.26 0.599999
    endloop
  endfacet
  facet normal 1 -0 0
    outer loop
      vertex 7.75495 -1.26 0.599999
      vertex 7.75495 11.26 0
      vertex 7.75495 11.26 0.599999
    endloop
  endfacet
  facet normal 1 0 0
    outer loop
      vertex 7.75495 11.26 0
      vertex 7.75495 -1.26 0.599999
      vertex 7.75495 -1.26 0
    endloop
  endfacet
  facet normal 0 1 -0
    outer loop
      vertex 7.75495 11.26 0
      vertex -1.26 11.26 0.599999
      vertex 7.75495 11.26 0.599999
    endloop
  endfacet
  facet normal 0 1 0
    outer loop
      vertex -1.26 11.26 0.599999
      vertex 7.75495 11.26 0
      vertex -1.26 11.26 0
    endloop
  endfacet
  facet normal 0 0 -1
    outer loop
      vertex -1.26 -1.26 0
      vertex 7.75495 11.26 0
      vertex 7.75495 -1.26 0
    endloop
  endfacet
  facet normal -0 0 -1
    outer loop
      vertex 7.75495 11.26 0
      vertex -1.26 -1.26 0
      vertex -1.26 11.26 0
    endloop
  endfacet
  facet normal 0 -1 0
    outer loop
      vertex -1.26 -1.26 0
      vertex 7.75495 -1.26 0.599999
      vertex -1.26 -1.26 0.599999
    endloop
  endfacet
  facet normal 0 -1 -0
    outer loop
      vertex 7.75495 -1.26 0.599999
      vertex -1.26 -1.26 0
      vertex 7.75495 -1.26 0
    endloop
  endfacet
endsolid OpenSCAD_Model
